#!OML:ASF I:\Actors\actors\Patient Classification 1\Patient 1\Session 1\Subject1.ASF
:FULLY-SPECIFIED
:DEGREES
1370
root 0.268498 17.6209 9.42875 17.9219 -3.34646 -10.1684
lowerback 6.61546 -0.381732 6.94603
upperback -5.91167 0.342423 0.895805
thorax -10.0408 -0.29427 -2.98793
lowerneck -20.1697 0.156867 2.56124
upperneck 29.059 -2.29 4.74923
head 13.1888 -0.066347 1.02278
rclavicle 6.95746e-015 -5.24792e-014
rhumerus -15.1169 65.9449 -82.8318
rradius 88.1484
rwrist -47.1333
rhand 21.4938 -80.186
rfingers 7.12502
rthumb 45.924 -256.688
lclavicle 6.95746e-015 -5.24792e-014
lhumerus -25.3651 -37.5145 92.6888
lradius 71.7581
lwrist 70.6096
lhand -27.7812 30.7878
lfingers 7.12502
lthumb -1.17459 60.7643
rfemur -14.3331 27.7218 23.8423
rtibia 1.81673
rfoot -8.28784 -25.522
rtoes 4.29475
lfemur 355.186 -53.7244 -361.179
ltibia -4.71172
lfoot -402.329 420.927
ltoes 21.6749
1371
root 0.275733 17.6077 9.44539 17.0068 -3.0464 -10.6423
lowerback 6.66599 -0.442423 7.7664
upperback -6.04789 0.38756 1.14144
thorax -10.2325 -0.330666 -3.18766
lowerneck -19.7301 -0.0509701 2.43617
upperneck 29.4947 -2.45065 4.43756
head 13.2731 -0.190009 0.899836
rclavicle 1.51076e-014 3.97569e-015
rhumerus -19.6848 65.5423 -85.3168
rradius 89.8431
rwrist -47.4306
rhand 18.9081 -79.6618
rfingers 7.12502
rthumb 43.5165 -256.277
lclavicle 1.51076e-014 3.97569e-015
lhumerus -27.7934 -37.906 94.5366
lradius 73.2915
lwrist 71.1919
lhand -28.5254 30.9409
lfingers 7.12502
lthumb -1.89331 60.9122
rfemur -13.0163 27.0957 25.1076
rtibia 1.8433
rfoot -8.58067 -25.0403
rtoes 4.25404
lfemur 356.829 -52.0707 -362.053
ltibia -4.93513
lfoot -398.417 420.016
ltoes 19.7766
1372
root 0.272299 17.603 9.47541 16.3815 -2.8386 -10.6092
lowerback 6.165 -0.462501 7.91256
upperback -6.22638 0.346574 1.25494
thorax -10.1398 -0.357323 -3.13799
lowerneck -19.5495 -0.268668 2.15849
upperneck 30.2737 -2.68689 4.36606
head 13.5678 -0.319487 0.890025
rclavicle 1.63997e-014 -1.90833e-014
rhumerus -24.0938 65.025 -87.7238
rradius 91.5281
rwrist -47.7546
rhand 18.1272 -79.6526
rfingers 7.12502
rthumb 42.7867 -256.026
lclavicle 1.63997e-014 -1.90833e-014
lhumerus -30.1977 -38.4119 96.3567
lradius 74.7795
lwrist 71.2572
lhand -29.3435 31.1035
lfingers 7.12502
lthumb -2.68346 61.0664
rfemur -12.0918 26.9249 25.5258
rtibia 1.85614
rfoot -8.95093 -25.0504
rtoes 4.49329
lfemur 357.773 -50.766 -362.916
ltibia -4.97993
lfoot -395.573 419.135
ltoes 18.4098
1373
root 0.257374 17.6088 9.52163 16.1935 -2.60054 -10.2447
lowerback 4.96332 -0.435862 7.59403
upperback -6.47769 0.247557 1.30085
thorax -9.70608 -0.371548 -2.89409
lowerneck -19.4074 -0.471897 1.95736
upperneck 31.0207 -2.89298 4.18809
head 13.8589 -0.442706 0.828703
rclavicle 1.01877e-014 4.13472e-014
rhumerus -28.2834 64.3563 -89.9137
rradius 93.2433
rwrist -48.01
rhand 18.4415 -80.0971
rfingers 7.12502
rthumb 43.0805 -255.685
lclavicle 1.01877e-014 4.13472e-014
lhumerus -32.4643 -38.9057 98.1649
lradius 76.1074
lwrist 71.3387
lhand -29.9594 31.3234
lfingers 7.12502
lthumb -3.27828 61.278
rfemur -11.6846 26.9686 25.3404
rtibia 1.87848
rfoot -9.32487 -25.3636
rtoes 4.59691
lfemur 357.838 -49.7129 -363.449
ltibia -4.84863
lfoot -393.502 418.251
ltoes 17.3233
1374
root 0.252933 17.6067 9.55319 15.7167 -2.27789 -10.2906
lowerback 4.36045 -0.443245 7.92622
upperback -6.71481 0.228431 1.38123
thorax -9.6192 -0.404147 -2.98819
lowerneck -19.1786 -0.674628 1.77661
upperneck 31.6667 -3.08917 3.99143
head 14.0911 -0.566031 0.755389
rclavicle -1.05356e-014 -3.18055e-015
rhumerus -32.3957 63.4329 -92.0243
rradius 94.9808
rwrist -48.2848
rhand 18.4254 -80.2265
rfingers 7.12502
rthumb 43.0655 -255.551
lclavicle -1.05356e-014 -3.18055e-015
lhumerus -34.7228 -39.3876 100.007
lradius 77.2841
lwrist 71.7809
lhand -30.5293 31.3933
lfingers 7.12502
lthumb -3.8286 61.3387
rfemur -10.9491 26.6267 25.8374
rtibia 1.94695
rfoot -9.56878 -25.3427
rtoes 4.32014
lfemur 358.385 -48.5639 -363.876
ltibia -4.77044
lfoot -391.171 417.255
ltoes 15.7407
1375
root 0.253449 17.5969 9.57594 15.0541 -1.98248 -10.5436
lowerback 4.06242 -0.458421 8.56801
upperback -6.90448 0.250691 1.44658
thorax -9.66467 -0.443559 -3.27582
lowerneck -18.8307 -0.888337 1.61786
upperneck 32.1442 -3.33061 3.89221
head 14.2288 -0.698392 0.706997
rclavicle 1.52816e-014 -3.73715e-014
rhumerus -36.3093 62.2859 -94.0288
rradius 96.6713
rwrist -48.5841
rhand 17.9172 -79.7565
rfingers 7.12502
rthumb 42.5901 -255.854
lclavicle 1.52816e-014 -3.73715e-014
lhumerus -36.951 -39.9975 101.827
lradius 78.3692
lwrist 72.4313
lhand -31.3171 31.2677
lfingers 7.12502
lthumb -4.58932 61.198
rfemur -9.99198 26.2721 26.6576
rtibia 1.98733
rfoot -9.77773 -25.2895
rtoes 4.18351
lfemur 359.34 -47.6431 -364.327
ltibia -4.81011
lfoot -389.07 416.496
ltoes 14.0485
1376
root 0.243827 17.5921 9.6051 14.6264 -1.98644 -10.1427
lowerback 3.39818 -0.401318 8.24872
upperback -7.11529 0.235841 1.37824
thorax -9.49773 -0.430048 -3.16804
lowerneck -18.4014 -1.11068 1.4285
upperneck 32.4522 -3.58809 3.86222
head 14.2768 -0.837016 0.6876
rclavicle -3.75082e-014 5.08889e-014
rhumerus -39.9541 61.0038 -95.7946
rradius 98.3356
rwrist -48.8151
rhand 17.6239 -79.5219
rfingers 7.12502
rthumb 42.3155 -255.995
lclavicle -3.75082e-014 5.08889e-014
lhumerus -39.0678 -40.6733 103.645
lradius 79.4028
lwrist 72.9761
lhand -32.3103 31.1941
lfingers 7.12502
lthumb -5.54837 61.1015
rfemur -9.38597 26.2162 26.5074
rtibia 2.02895
rfoot -10.0062 -25.3755
rtoes 4.26605
lfemur 360.029 -47.1657 -365.334
ltibia -4.81707
lfoot -387.908 416.145
ltoes 13.0376
1377
root 0.23228 17.5899 9.62933 14.1242 -1.96103 -9.71287
lowerback 2.92069 -0.387876 7.81445
upperback -7.2884 0.179186 1.365
thorax -9.40287 -0.427702 -2.93297
lowerneck -18.1114 -1.31219 1.18387
upperneck 32.765 -3.78339 3.77804
head 14.3568 -0.961635 0.666448
rclavicle 5.29575e-016 -1.59028e-014
rhumerus -43.1795 59.7036 -97.1352
rradius 100.017
rwrist -49.0594
rhand 17.5835 -79.6984
rfingers 7.12502
rthumb 42.2776 -255.805
lclavicle 5.29575e-016 -1.59028e-014
lhumerus -41.0735 -41.3784 105.493
lradius 80.4332
lwrist 73.3597
lhand -33.4881 31.2077
lfingers 7.12502
lthumb -6.68539 61.0821
rfemur -8.71643 26.0855 26.3557
rtibia 2.07003
rfoot -10.2094 -25.3929
rtoes 4.12605
lfemur 360.744 -46.5967 -366.373
ltibia -4.8056
lfoot -386.651 415.633
ltoes 11.8932
1378
root 0.226943 17.5844 9.64725 13.5117 -1.75361 -9.62141
lowerback 2.67032 -0.429051 7.85653
upperback -7.42712 0.115471 1.4372
thorax -9.41679 -0.462548 -2.87098
lowerneck -17.8807 -1.50274 0.91822
upperneck 33.0252 -3.95311 3.68752
head 14.427 -1.07937 0.650025
rclavicle 9.34288e-015 2.78299e-015
rhumerus -46.0381 58.3259 -98.2024
rradius 101.606
rwrist -49.2638
rhand 17.4777 -79.6145
rfingers 7.12502
rthumb 42.1785 -255.856
lclavicle 9.34288e-015 2.78299e-015
lhumerus -43.0584 -42.1274 107.356
lradius 81.4743
lwrist 73.7315
lhand -34.3787 31.1735
lfingers 7.12502
lthumb -7.5451 61.0189
rfemur -7.88842 25.7925 26.666
rtibia 2.07555
rfoot -10.4026 -25.3508
rtoes 4.23763
lfemur 361.492 -45.8544 -367.033
ltibia -4.74862
lfoot -385.353 414.815
ltoes 10.8129
